<svg id="Layer_1" enable-background="new 0 0 512 512" height="512" viewBox="0 0 512 512" width="512" xmlns="http://www.w3.org/2000/svg"><path d="m476.842 134.5c-2.835-3.757-7.269-5.967-11.976-5.967h-65.333v-33.2c0-30.402-21.58-55.853-50.224-61.855-5.869-19.35-23.867-33.478-45.109-33.478-25.989 0-47.134 21.144-47.134 47.133s21.145 47.133 47.134 47.133c19.937 0 37.01-12.449 43.886-29.977 12.521 4.757 21.447 16.875 21.447 31.044v33.2h-322.4c-4.707 0-9.141 2.209-11.975 5.967s-3.741 8.628-2.448 13.154l32.133 112.466c1.841 6.441 7.727 10.88 14.424 10.88h65.333v211h-33.2c-8.284 0-15 6.716-15 15s6.716 15 15 15h289.2c8.284 0 15-6.716 15-15s-6.716-15-15-15h-33.199v-211h65.333c6.697 0 12.583-4.439 14.423-10.879l32.133-112.467c1.292-4.526.386-9.396-2.448-13.154zm-172.642-70.233c-9.447 0-17.134-7.686-17.134-17.133s7.687-17.134 17.134-17.134 17.133 7.686 17.133 17.133-7.685 17.134-17.133 17.134zm33.201 417.733h-162.801v-259.2h162.8v259.2zm84.018-241h-54.019v-33.2c0-8.284-6.716-15-15-15h-192.8c-8.284 0-15 6.716-15 15v33.2h-54.019l-23.562-82.467h377.961z"/></svg>