<?xml version="1.0" encoding="UTF-8" standalone="no"?>
<svg
   width="1398"
   height="722"
   viewBox="0 0 1398 722"
   fill="none"
   version="1.1"
   id="svg30"
   sodipodi:docname="background.svg"
   inkscape:version="1.1 (c68e22c387, 2021-05-23)"
   xmlns:inkscape="http://www.inkscape.org/namespaces/inkscape"
   xmlns:sodipodi="http://sodipodi.sourceforge.net/DTD/sodipodi-0.dtd"
   xmlns="http://www.w3.org/2000/svg"
   xmlns:svg="http://www.w3.org/2000/svg">
  <defs
     id="defs34" />
  <sodipodi:namedview
     id="namedview32"
     pagecolor="#ffffff"
     bordercolor="#666666"
     borderopacity="1.0"
     inkscape:pageshadow="2"
     inkscape:pageopacity="0.0"
     inkscape:pagecheckerboard="0"
     showgrid="false"
     inkscape:zoom="1.0379113"
     inkscape:cx="699"
     inkscape:cy="361.30255"
     inkscape:window-width="1920"
     inkscape:window-height="1046"
     inkscape:window-x="-11"
     inkscape:window-y="-11"
     inkscape:window-maximized="1"
     inkscape:current-layer="svg30" />
  <path
     d="M1383.58 130.028C1374.95 114.705 1362.83 101.631 1348.21 91.863C1333.58 82.0953 1316.86 75.9088 1299.4 73.8046C1281.94 71.7003 1264.23 73.7374 1247.7 79.751C1231.18 85.7645 1216.3 95.5853 1204.27 108.418C1192.25 121.251 1183.41 136.736 1178.49 153.618C1173.56 170.5 1172.68 188.306 1175.91 205.593C1179.14 222.88 1186.4 239.162 1197.1 253.122C1207.8 267.081 1221.63 278.326 1237.48 285.945L1258.36 242.508C1249.33 238.168 1241.45 231.762 1235.35 223.809C1229.26 215.856 1225.12 206.58 1223.28 196.732C1221.44 186.883 1221.94 176.74 1224.75 167.122C1227.56 157.504 1232.59 148.683 1239.44 141.372C1246.29 134.061 1254.77 128.466 1264.18 125.04C1273.6 121.614 1283.69 120.453 1293.63 121.652C1303.58 122.851 1313.11 126.375 1321.44 131.94C1329.77 137.505 1336.67 144.953 1341.59 153.682L1383.58 130.028Z"
     fill="#6070FF"
     id="path2"
     style="fill:#e9e9e9;fill-opacity:1;opacity:0.33227848" />
  <path
     d="M246.234 705.783C248.556 703.017 250.195 699.743 251.016 696.226C251.838 692.709 251.82 689.048 250.963 685.539C250.107 682.031 248.436 678.773 246.087 676.031C243.737 673.288 240.775 671.137 237.439 669.752C234.104 668.367 230.489 667.787 226.888 668.059C223.287 668.331 219.8 669.447 216.71 671.317C213.621 673.187 211.015 675.758 209.103 678.823C207.192 681.887 206.03 685.358 205.71 688.956L215.568 689.833C215.75 687.783 216.412 685.805 217.501 684.06C218.59 682.314 220.075 680.849 221.835 679.784C223.595 678.718 225.581 678.082 227.633 677.928C229.685 677.773 231.744 678.103 233.644 678.892C235.544 679.681 237.232 680.907 238.571 682.469C239.909 684.032 240.861 685.887 241.349 687.886C241.837 689.885 241.847 691.971 241.379 693.974C240.911 695.978 239.977 697.843 238.654 699.419L246.234 705.783Z"
     fill="#EBEBFF"
     id="path4"
     style="fill:#ec5242;fill-opacity:1;opacity:0.07594937" />
  <rect
     x="1112"
     y="102"
     width="204"
     height="47"
     transform="rotate(-30 1112 102)"
     fill="#EBEBFF"
     id="rect6"
     style="opacity:0.08544304;fill:#ec5242;fill-opacity:1" />
  <rect
     x="697.44"
     y="631"
     width="161.407"
     height="28.875"
     transform="rotate(23.34 697.44 631)"
     fill="#EBEBFF"
     id="rect8"
     style="fill:#ec5242;fill-opacity:1;opacity:0.08227848" />
  <rect
     width="56.0124"
     height="10.0203"
     transform="matrix(0.977401 -0.211395 -0.211395 -0.977401 659.253 142.572)"
     fill="#6070FF"
     id="rect10"
     style="fill:#e9e9e9;fill-opacity:1;opacity:0.58860759" />
  <rect
     x="0.601562"
     y="99.9232"
     width="108.669"
     height="19.4403"
     transform="rotate(-46.1415 0.601562 99.9232)"
     fill="#EBEBFF"
     id="rect12"
     style="fill:#ec5242;fill-opacity:1;opacity:0.10126582" />
  <circle
     cx="828.5"
     cy="662.5"
     r="23.5"
     fill="#6070FF"
     id="circle14"
     style="fill:#e9e9e9;fill-opacity:1;opacity:0.49050633" />
  <circle
     cx="685.5"
     cy="149.5"
     r="11.5"
     fill="#EBEBFF"
     id="circle16"
     style="fill:#ec5242;fill-opacity:1;opacity:0.07278481" />
  <circle
     cx="1177.5"
     cy="562.5"
     r="37"
     fill="white"
     stroke="#EBEBFF"
     id="circle18" />
  <circle
     r="19"
     transform="matrix(1 0 0 -1 950.5 53.5)"
     fill="white"
     stroke="#EBEBFF"
     id="circle20" />
  <circle
     cx="352.5"
     cy="53.5"
     r="7"
     fill="white"
     stroke="#EBEBFF"
     id="circle22" />
  <circle
     r="11"
     transform="matrix(1 0 0 -1 50.5 404.5)"
     fill="white"
     stroke="#EBEBFF"
     id="circle24" />
  <path
     d="M46.9842 73.0741C42.7936 82.8892 42.6736 93.967 46.6508 103.87C50.6279 113.774 58.3763 121.692 68.1914 125.883C78.0065 130.073 89.0843 130.193 98.9878 126.216C108.891 122.239 116.809 114.49 121 104.675L46.9842 73.0741Z"
     fill="#6070FF"
     id="path26"
     style="fill:#e9e9e9;fill-opacity:1" />
  <path
     d="M221.155 650C220.821 654.881 222.439 659.695 225.654 663.383C228.87 667.071 233.418 669.331 238.299 669.666C243.181 670 247.995 668.381 251.683 665.166C255.371 661.951 257.63 657.403 257.965 652.521L221.155 650Z"
     fill="#6070FF"
     id="path28"
     style="fill:#e9e9e9;fill-opacity:1" />
  <path
     d="m 230.21456,476.87014 c 2.322,-2.766 3.961,-6.04 4.782,-9.557 0.822,-3.517 0.804,-7.178 -0.053,-10.687 -0.856,-3.508 -2.527,-6.766 -4.876,-9.508 -2.35,-2.743 -5.312,-4.894 -8.648,-6.279 -3.335,-1.385 -6.95,-1.965 -10.551,-1.693 -3.601,0.272 -7.088,1.388 -10.178,3.258 -3.089,1.87 -5.695,4.441 -7.607,7.506 -1.911,3.064 -3.073,6.535 -3.393,10.133 l 9.858,0.877 c 0.182,-2.05 0.844,-4.028 1.933,-5.773 1.089,-1.746 2.574,-3.211 4.334,-4.276 1.76,-1.066 3.746,-1.702 5.798,-1.856 2.052,-0.155 4.111,0.175 6.011,0.964 1.9,0.789 3.588,2.015 4.927,3.577 1.338,1.563 2.29,3.418 2.778,5.417 0.488,1.999 0.498,4.085 0.03,6.088 -0.468,2.004 -1.402,3.869 -2.725,5.445 z"
     fill="#ebebff"
     id="path4-2"
     style="fill:#ec5242;fill-opacity:1;opacity:0.08860759" />
  <path
     d="m 205.13556,421.08714 c -0.334,4.881 1.284,9.695 4.499,13.383 3.216,3.688 7.764,5.948 12.645,6.283 4.882,0.334 9.696,-1.285 13.384,-4.5 3.688,-3.215 5.947,-7.763 6.282,-12.645 z"
     fill="#6070FF"
     id="path28-4"
     style="fill:#e9e9e9;fill-opacity:1;opacity:0.706" />
  <path
     d="m 533.7087,211.91493 c 2.322,-2.766 3.961,-6.04 4.782,-9.557 0.822,-3.517 0.804,-7.178 -0.053,-10.687 -0.856,-3.508 -2.527,-6.766 -4.876,-9.508 -2.35,-2.743 -5.312,-4.894 -8.648,-6.279 -3.335,-1.385 -6.95,-1.965 -10.551,-1.693 -3.601,0.272 -7.088,1.388 -10.178,3.258 -3.089,1.87 -5.695,4.441 -7.607,7.506 -1.911,3.064 -3.073,6.535 -3.393,10.133 l 9.858,0.877 c 0.182,-2.05 0.844,-4.028 1.933,-5.773 1.089,-1.746 2.574,-3.211 4.334,-4.276 1.76,-1.066 3.746,-1.702 5.798,-1.856 2.052,-0.155 4.111,0.175 6.011,0.964 1.9,0.789 3.588,2.015 4.927,3.577 1.338,1.563 2.29,3.418 2.778,5.417 0.488,1.999 0.498,4.085 0.03,6.088 -0.468,2.004 -1.402,3.869 -2.725,5.445 z"
     fill="#ebebff"
     id="path4-8"
     style="fill:#ec5242;fill-opacity:1;opacity:0.07594937" />
  <path
     d="m 508.6297,156.13193 c -0.334,4.881 1.284,9.695 4.499,13.383 3.216,3.688 7.764,5.948 12.645,6.283 4.882,0.334 9.696,-1.285 13.384,-4.5 3.688,-3.215 5.947,-7.763 6.282,-12.645 z"
     fill="#6070FF"
     id="path28-2"
     style="fill:#e9e9e9;fill-opacity:1;opacity:0.39556962" />
  <path
     d="m 367.02779,203.24367 c 2.322,-2.766 3.961,-6.04 4.782,-9.557 0.822,-3.517 0.804,-7.178 -0.053,-10.687 -0.856,-3.508 -2.527,-6.766 -4.876,-9.508 -2.35,-2.743 -5.312,-4.894 -8.648,-6.279 -3.335,-1.385 -6.95,-1.965 -10.551,-1.693 -3.601,0.272 -7.088,1.388 -10.178,3.258 -3.089,1.87 -5.695,4.441 -7.607,7.506 -1.911,3.064 -3.073,6.535 -3.393,10.133 l 9.858,0.877 c 0.182,-2.05 0.844,-4.028 1.933,-5.773 1.089,-1.746 2.574,-3.211 4.334,-4.276 1.76,-1.066 3.746,-1.702 5.798,-1.856 2.052,-0.155 4.111,0.175 6.011,0.964 1.9,0.789 3.588,2.015 4.927,3.577 1.338,1.563 2.29,3.418 2.778,5.417 0.488,1.999 0.498,4.085 0.03,6.088 -0.468,2.004 -1.402,3.869 -2.725,5.445 z"
     fill="#ebebff"
     id="path4-4"
     style="fill:#ec5242;fill-opacity:1;opacity:0.06962025" />
  <path
     d="m 341.94879,147.46067 c -0.334,4.881 1.284,9.695 4.499,13.383 3.216,3.688 7.764,5.948 12.645,6.283 4.882,0.334 9.696,-1.285 13.384,-4.5 3.688,-3.215 5.947,-7.763 6.282,-12.645 z"
     fill="#6070FF"
     id="path28-3"
     style="fill:#e9e9e9;fill-opacity:1;opacity:0.61075949" />
  <path
     d="m 1324.7204,455.67372 c 2.322,-2.766 3.961,-6.04 4.782,-9.557 0.822,-3.517 0.804,-7.178 -0.053,-10.687 -0.856,-3.508 -2.527,-6.766 -4.876,-9.508 -2.35,-2.743 -5.312,-4.894 -8.648,-6.279 -3.335,-1.385 -6.95,-1.965 -10.551,-1.693 -3.601,0.272 -7.088,1.388 -10.178,3.258 -3.089,1.87 -5.695,4.441 -7.607,7.506 -1.911,3.064 -3.073,6.535 -3.393,10.133 l 9.858,0.877 c 0.182,-2.05 0.844,-4.028 1.933,-5.773 1.089,-1.746 2.574,-3.211 4.334,-4.276 1.76,-1.066 3.746,-1.702 5.798,-1.856 2.052,-0.155 4.111,0.175 6.011,0.964 1.9,0.789 3.588,2.015 4.927,3.577 1.338,1.563 2.29,3.418 2.778,5.417 0.488,1.999 0.498,4.085 0.03,6.088 -0.468,2.004 -1.402,3.869 -2.725,5.445 z"
     fill="#ebebff"
     id="path4-29"
     style="fill:#ec5242;fill-opacity:1;opacity:0.11392405" />
  <path
     d="m 1299.6414,399.89072 c -0.334,4.881 1.284,9.695 4.499,13.383 3.216,3.688 7.764,5.948 12.645,6.283 4.882,0.334 9.696,-1.285 13.384,-4.5 3.688,-3.215 5.947,-7.763 6.282,-12.645 z"
     fill="#6070FF"
     id="path28-34"
     style="fill:#e9e9e9;fill-opacity:1" />
  <path
     d="m 851.65494,594.4139 c 2.322,-2.766 3.961,-6.04 4.782,-9.557 0.822,-3.517 0.804,-7.178 -0.053,-10.687 -0.856,-3.508 -2.527,-6.766 -4.876,-9.508 -2.35,-2.743 -5.312,-4.894 -8.648,-6.279 -3.335,-1.385 -6.95,-1.965 -10.551,-1.693 -3.601,0.272 -7.088,1.388 -10.178,3.258 -3.089,1.87 -5.695,4.441 -7.607,7.506 -1.911,3.064 -3.073,6.535 -3.393,10.133 l 9.858,0.877 c 0.182,-2.05 0.844,-4.028 1.933,-5.773 1.089,-1.746 2.574,-3.211 4.334,-4.276 1.76,-1.066 3.746,-1.702 5.798,-1.856 2.052,-0.155 4.111,0.175 6.011,0.964 1.9,0.789 3.588,2.015 4.927,3.577 1.338,1.563 2.29,3.418 2.778,5.417 0.488,1.999 0.498,4.085 0.03,6.088 -0.468,2.004 -1.402,3.869 -2.725,5.445 z"
     fill="#ebebff"
     id="path4-0"
     style="fill:#ec5242;fill-opacity:1;opacity:0.08860759" />
  <path
     d="m 826.57594,538.6309 c -0.334,4.881 1.284,9.695 4.499,13.383 3.216,3.688 7.764,5.948 12.645,6.283 4.882,0.334 9.696,-1.285 13.384,-4.5 3.688,-3.215 5.947,-7.763 6.282,-12.645 z"
     fill="#6070FF"
     id="path28-6"
     style="fill:#e9e9e9;fill-opacity:1" />
  <path
     d="m 631.98299,636.80673 c 2.322,-2.766 3.961,-6.04 4.782,-9.557 0.822,-3.517 0.804,-7.178 -0.053,-10.687 -0.856,-3.508 -2.527,-6.766 -4.876,-9.508 -2.35,-2.743 -5.312,-4.894 -8.648,-6.279 -3.335,-1.385 -6.95,-1.965 -10.551,-1.693 -3.601,0.272 -7.088,1.388 -10.178,3.258 -3.089,1.87 -5.695,4.441 -7.607,7.506 -1.911,3.064 -3.073,6.535 -3.393,10.133 l 9.858,0.877 c 0.182,-2.05 0.844,-4.028 1.933,-5.773 1.089,-1.746 2.574,-3.211 4.334,-4.276 1.76,-1.066 3.746,-1.702 5.798,-1.856 2.052,-0.155 4.111,0.175 6.011,0.964 1.9,0.789 3.588,2.015 4.927,3.577 1.338,1.563 2.29,3.418 2.778,5.417 0.488,1.999 0.498,4.085 0.03,6.088 -0.468,2.004 -1.402,3.869 -2.725,5.445 z"
     fill="#ebebff"
     id="path4-0-5"
     style="fill:#ec5242;fill-opacity:1;opacity:0.08227848" />
  <path
     d="m 606.90399,581.02373 c -0.334,4.881 1.284,9.695 4.499,13.383 3.216,3.688 7.764,5.948 12.645,6.283 4.882,0.334 9.696,-1.285 13.384,-4.5 3.688,-3.215 5.947,-7.763 6.282,-12.645 z"
     fill="#6070FF"
     id="path28-6-2"
     style="fill:#e9e9e9;fill-opacity:1" />
  <rect
     width="56.012417"
     height="10.020303"
     transform="matrix(0.97740073,-0.21139494,-0.21139494,-0.97740073,0,0)"
     fill="#6070FF"
     id="rect10-0"
     style="fill:#e9e9e9;fill-opacity:1;opacity:0.38607595"
     x="870.16248"
     y="-546.68329" />
  <circle
     cx="992.31049"
     cy="357.30869"
     r="11.5"
     fill="#ebebff"
     id="circle16-4"
     style="fill:#ec5242;fill-opacity:1;opacity:0.085" />
  <rect
     width="56.012417"
     height="10.020303"
     transform="matrix(0.97740073,-0.21139494,-0.21139494,-0.97740073,0,0)"
     fill="#6070FF"
     id="rect10-0-3"
     style="fill:#e9e9e9;fill-opacity:1;opacity:0.5664557"
     x="933.90063"
     y="-434.29266" />
  <circle
     cx="1030.8494"
     cy="233.98407"
     r="11.5"
     fill="#ebebff"
     id="circle16-4-6"
     style="fill:#ec5242;fill-opacity:1;opacity:0.08544304" />
  <rect
     width="56.012417"
     height="10.020303"
     transform="matrix(0.97740073,-0.21139494,-0.21139494,-0.97740073,0,0)"
     fill="#6070FF"
     id="rect10-5"
     style="fill:#e9e9e9;fill-opacity:1;opacity:0.70886076"
     x="373.78839"
     y="-385.10983" />
  <circle
     cx="472.99829"
     cy="304.31766"
     r="11.5"
     fill="#ebebff"
     id="circle16-2"
     style="fill:#ec5242;fill-opacity:1;opacity:0.07594937" />
</svg>
